# xmcd
#
# Track frame offsets: 
#        150
#        21393
#        32456
#        60592
#        103416
#        128070
#        150056
#        196299
#        223922
#
# Disc length: 3492 seconds
#
# Revision: 0
# Processed by: cddbd v1.5.2PL0 Copyright (c) Steve Scherf et al.
# Submitted via: ExactAudioCopy v1.0b1
#
DISCID=750da209
DTITLE=Van Cliburn - Complete Album Collection vol. 20
DYEAR=1970
DGENRE=Piano
TTITLE0=Sonata, piano, no. 14, c-sharp minor   Adagio sostenuto -  Op.
TTITLE0=27  No. 2   [Ludwig van Beethoven]  
TTITLE1=Sonata, piano, no. 14, c-sharp minor   Allegretto -  Op. 27  N
TTITLE1=o. 2   [Ludwig van Beethoven] 
TTITLE2=Sonata, piano, no. 14, c-sharp minor   Presto agitato  Op. 27 
TTITLE2=No. 2   [Ludwig van Beethoven]  
TTITLE3=Sonata, piano, no. 08, c minor   Grave - Allegro di molto e co
TTITLE3=n brio  Op. 13   [Ludwig van Beethoven]  
TTITLE4=Sonata, piano, no. 08, c minor   Adagio cantabile  Op. 13   [L
TTITLE4=udwig van Beethoven]  
TTITLE5=Sonata, piano, no. 08, c minor   Rondo: Allegro  Op. 13   [Lud
TTITLE5=wig van Beethoven]  
TTITLE6=Sonata, piano, no. 23, f minor   Allegro assai  Op. 57   [Ludw
TTITLE6=ig van Beethoven] 
TTITLE7=Sonata, piano, no. 23, f minor   Andante con moto -  Op. 57   
TTITLE7=[Ludwig van Beethoven] 
TTITLE8=Sonata, piano, no. 23, f minor   Allegro ma non troppo  Op. 57
TTITLE8=[Ludwig van Beethoven]  
EXTD=
EXTT0=
EXTT1=
EXTT2=
EXTT3=
EXTT4=
EXTT5=
EXTT6=
EXTT7=
EXTT8=
PLAYORDER=
